<svg width="20" height="20" viewBox="0 0 20 20" fill="none" xmlns="http://www.w3.org/2000/svg">
<g id="fi-bs-interlining" clip-path="url(#clip0_11167_21572)">
<path id="Vector" d="M20.0013 3.33398H9.16797V5.83398H20.0013V3.33398Z" fill="#6E727F"/>
<path id="Vector_2" d="M20.0013 9.16602H9.16797V11.666H20.0013V9.16602Z" fill="#6E727F"/>
<path id="Vector_3" d="M20.0013 15H9.16797V17.5H20.0013V15Z" fill="#6E727F"/>
<path id="Vector_4" d="M7.5 5.83442L4.41667 2.75108C4.32968 2.66405 4.2264 2.59501 4.11273 2.54791C3.99905 2.50081 3.87721 2.47656 3.75417 2.47656C3.63112 2.47656 3.50928 2.50081 3.3956 2.54791C3.28193 2.59501 3.17865 2.66405 3.09167 2.75108L0 5.83442H2.5V15.0011H0L3.06083 18.0619C3.14713 18.1483 3.24962 18.2169 3.36244 18.2637C3.47526 18.3105 3.5962 18.3345 3.71833 18.3345C3.84047 18.3345 3.9614 18.3105 4.07422 18.2637C4.18704 18.2169 4.28953 18.1483 4.37583 18.0619L7.43667 15.0011H5V5.83442H7.5Z" fill="#6E727F"/>
</g>
<defs>
<clipPath id="clip0_11167_21572">
<rect width="20" height="20" fill="white"/>
</clipPath>
</defs>
</svg>
